<svg width="555" height="352" viewBox="0 0 555 352" fill="none" xmlns="http://www.w3.org/2000/svg">
<rect x="78" y="78" width="361" height="274" rx="39" fill="#4A90E2"/>
<path d="M302.972 57.637C267.563 57.637 232.029 57.637 196.621 57.637C188.304 57.637 186.54 55.2429 189.06 47.3043C194.1 31.3012 207.583 21.0945 224.342 21.0945C302.972 20.9685 381.601 20.9685 460.357 21.0945C475.856 21.0945 490.221 32.8133 493.245 47.9344C494.505 53.8568 495.261 59.9052 495.261 65.9536C495.387 116.609 495.387 167.391 495.261 218.046C495.261 224.095 494.757 230.143 493.875 236.191C492.111 249.296 480.896 261.519 468.421 264.543C459.475 266.686 457.459 265.299 457.459 256.101C457.459 205.949 457.333 155.924 457.459 105.772C457.585 84.4769 447.756 69.6079 428.729 61.2913C422.302 58.5191 414.49 57.7631 407.181 57.7631C372.655 57.511 337.876 57.637 302.972 57.637Z" fill="#89BBF6"/>
<path d="M0 57.9568C13.1628 50.5856 30.8887 54.9733 39.1374 41.8104C46.5086 30.0516 50.7207 16.3623 57.0389 2.14648C58.2674 4.77905 59.3204 6.88509 60.0224 8.99114C62.4795 16.3623 64.41 24.0845 67.2181 31.2802C72.3077 44.794 83.54 50.2346 96.8783 52.5162C101.617 53.3937 106.005 55.3243 112.323 57.4303C97.9314 64.4505 83.0135 67.9606 73.8873 77.2623C64.9366 86.3885 61.953 101.482 55.9859 114.294C50.7207 101.657 48.2637 86.0375 39.1374 76.9113C30.1867 67.6096 14.7424 64.626 0 57.9568Z" fill="#4A90E2"/>
<path d="M131.021 0C133.135 15.758 142.936 22.0996 158.886 26.3274C144.473 32.669 132.559 37.8577 131.79 54C125.833 42.6619 122.758 29.9786 107 28.4413C117.954 21.7153 129.484 15.9502 131.021 0Z" fill="#89BBF6"/>
<path d="M508.347 252C516.796 275.619 532.592 288.19 555 295.048C532.224 305.714 513.857 318.667 509.816 348C503.571 321.333 491.449 303.809 465 297.714C483.735 285.905 505.408 279.81 508.347 252Z" fill="#89BBF6"/>
<path d="M241.778 278.873C237.381 280.166 232.983 282.235 228.586 282.235C203.497 282.494 178.666 282.753 153.577 282.235C135.988 281.977 127.453 272.924 127.194 255.853C126.935 228.694 126.935 201.535 127.194 174.635C127.194 167.393 127.194 159.375 130.298 153.167C133.402 147.218 140.385 139.2 145.817 138.941C175.045 137.389 204.273 138.165 233.501 138.424C241.002 138.424 244.882 142.821 244.882 151.098C244.106 177.998 243.847 204.898 243.33 232.056C243.071 247.576 241.519 249.128 226.258 249.128C204.273 249.128 182.287 249.128 160.302 249.128C156.422 249.128 151.766 248.352 148.921 250.162C145.041 252.49 139.609 256.887 139.609 260.508C139.609 264.13 144.782 268.785 148.662 271.113C151.507 272.924 156.163 272.148 160.043 272.148C182.546 272.148 204.79 272.148 227.293 272.148C231.69 272.148 236.087 272.924 240.743 273.441C241.002 275.252 241.519 277.062 241.778 278.873Z" fill="white"/>
<path d="M347.183 251.318C332.813 254.344 318.44 248.983 314.658 232.848C313.398 227.554 308.103 223.52 304.322 218.982C285.414 195.788 289.7 160.998 313.65 144.863C335.079 130.493 361.55 133.77 379.449 153.435C395.332 170.83 395.332 200.578 380.206 219.486C374.659 226.545 371.886 236.125 365.583 242.176C360.037 247.47 354.494 247.789 347.183 251.318C347.435 252.579 346.678 250.31 347.183 251.318ZM308.608 181.922C309.364 183.183 310.877 186.46 313.398 188.225C314.154 188.729 319.448 185.956 319.7 184.191C322.221 173.099 329.532 167.3 339.617 163.519C341.885 162.762 342.894 158.729 344.407 155.956C341.633 154.695 338.608 152.426 335.835 152.426C322.725 152.678 309.616 166.292 308.608 181.922Z" fill="white"/>
<path d="M330.81 260.514C339.252 260.432 346.86 260.445 354.189 260.488C365.167 260.41 368.317 265.857 363.232 275.715C355.357 290.818 330.929 291.543 321.984 277.176C316.188 268.256 320.206 261.42 330.81 260.514Z" fill="white"/>
<path d="M308.608 181.918C309.617 166.288 322.978 152.674 336.088 152.422C338.861 152.422 341.886 154.691 344.659 155.951C343.147 158.472 342.139 162.506 339.87 163.515C329.785 167.296 322.474 173.094 319.953 184.187C319.449 185.952 314.407 188.725 313.651 188.221C310.877 186.204 309.365 182.927 308.608 181.918Z" fill="#4A90E2"/>
</svg>
